<svg width="1134" height="417" viewBox="0 0 1134 417" fill="none" xmlns="http://www.w3.org/2000/svg">
<path d="M232.012 240.226C232.012 236.12 229.446 231.5 224.313 226.367C219.18 221.234 210.625 216.786 198.647 213.021C186.67 209.257 171.1 207.375 151.937 207.375C133.8 207.375 115.15 209.77 95.9871 214.561C76.8238 219.01 60.227 223.972 46.1968 229.447C32.1665 234.58 23.6115 238.173 20.5317 240.226V186.843C21.9005 186.501 35.2463 181.025 60.5692 170.417C86.2343 159.467 116.006 153.992 149.884 153.992C185.815 153.992 214.389 158.782 235.605 168.364C257.164 177.603 272.221 188.896 280.776 202.242C289.331 215.246 293.608 227.907 293.608 240.226V410.643H232.012V240.226ZM234.065 258.192C224.826 293.439 211.48 322.868 194.028 346.48C176.918 370.092 157.926 387.715 137.051 399.35C116.519 410.643 96.1582 416.289 75.9683 416.289C54.0674 416.289 35.9307 409.787 21.5583 396.783C7.18582 383.78 -0.00041064 365.985 -0.00041064 343.4C-0.00041064 320.473 8.21242 301.823 24.6381 287.45C41.406 272.735 61.0825 261.614 83.6678 254.085C106.595 246.557 136.025 238.686 171.956 230.474C194.541 225.683 212.336 221.405 225.339 217.641C238.685 213.877 249.122 209.428 256.651 204.295L268.457 244.846C254.426 252.717 238.514 259.732 220.719 265.891C203.267 271.709 181.537 278.553 155.53 286.423C124.048 296.005 101.12 303.876 86.7476 310.035C72.7174 316.195 65.5311 323.039 65.1889 330.567C65.1889 336.727 68.0977 341.518 73.9151 344.94C79.7325 348.362 87.432 350.073 97.0137 350.073C111.044 350.073 126.614 346.651 143.724 339.807C160.834 332.963 177.431 322.697 193.514 309.009C209.94 294.979 223.457 278.04 234.065 258.192ZM497.542 71.8632H409.767V410.643H348.171V0.000970443H497.542V71.8632ZM470.337 190.949H325.585V153.992H470.337V190.949ZM732.863 410.643V347.506C718.148 368.723 699.669 385.491 677.426 397.81C655.183 410.129 632.769 416.289 610.183 416.289C589.651 416.289 570.83 410.814 553.72 399.863C536.952 388.571 523.435 370.947 513.169 346.993C503.245 322.697 498.283 292.241 498.283 255.625V153.992H559.88V255.625C559.88 278.895 563.473 298.743 570.659 315.168C578.188 331.594 588.111 343.913 600.431 352.126C612.75 360.339 625.925 364.445 639.955 364.445C655.696 364.445 670.582 359.483 684.612 349.56C698.985 339.294 710.619 324.408 719.517 304.902C728.414 285.055 732.863 261.272 732.863 233.553V153.992H794.459V410.643H732.863ZM879.639 312.089C891.616 327.488 909.068 339.122 931.996 346.993C955.265 354.864 979.219 358.799 1003.86 358.799C1026.1 358.799 1044.75 355.719 1059.81 349.56C1074.86 343.058 1082.39 334.503 1082.39 323.895C1082.39 311.917 1078.12 303.705 1069.56 299.256C1061.01 294.465 1048.69 292.07 1032.6 292.07C1023.02 292.07 1007.28 293.096 985.379 295.15C963.82 297.545 945.513 298.743 930.456 298.743C904.106 298.743 883.403 293.952 868.346 284.37C853.632 274.446 846.274 256.481 846.274 230.474C846.274 204.466 857.909 184.276 881.179 169.904C904.791 155.189 934.22 147.832 969.467 147.832C991.71 147.832 1014.3 151.083 1037.22 157.585C1060.49 164.086 1081.71 173.497 1100.87 185.816L1057.24 225.341C1042.53 216.443 1026.96 209.941 1010.53 205.835C994.447 201.386 978.706 199.162 963.307 199.162C944.144 199.162 928.403 202.071 916.083 207.888C903.764 213.706 897.604 221.234 897.604 230.474C897.604 239.029 900.513 245.017 906.331 248.439C912.49 251.861 921.216 253.572 932.509 253.572C939.695 253.572 948.592 252.888 959.201 251.519C970.151 250.15 977.851 249.295 982.299 248.952C1010.36 244.846 1031.92 242.793 1046.98 242.793C1073.67 242.793 1094.71 248.781 1110.11 260.758C1125.85 272.393 1133.72 293.439 1133.72 323.895C1133.72 343.058 1127.22 359.483 1114.22 373.172C1101.21 386.86 1083.93 397.297 1062.37 404.483C1040.82 411.669 1017.55 415.262 992.565 415.262C960.398 415.262 929.6 409.445 900.171 397.81C871.084 385.833 848.156 368.723 831.388 346.48L879.639 312.089Z" fill="black"/>
</svg>
